<svg xmlns="http://www.w3.org/2000/svg" width="46.62" height="74.815" viewBox="0 0 46.62 74.815">
  <g id="seta" transform="translate(865.62 956.503) rotate(180)">
    <g id="Path_81" data-name="Path 81" transform="translate(865.62 909.884) rotate(90)" fill="none">
      <path d="M23.31,0A23.31,23.31,0,1,1,0,23.31,23.31,23.31,0,0,1,23.31,0Z" stroke="none"/>
      <path d="M 23.30974578857422 2.999996185302734 C 17.88481521606445 2.999996185302734 12.78458404541016 5.112575531005859 8.948585510253906 8.948585510253906 C 5.112575531005859 12.78458404541016 2.999996185302734 17.88481521606445 2.999996185302734 23.30974578857422 C 2.999996185302734 28.73467636108398 5.112575531005859 33.83489608764648 8.948585510253906 37.67090606689453 C 12.78458404541016 41.50690460205078 17.88481521606445 43.61948394775391 23.30974578857422 43.61948394775391 C 28.73467636108398 43.61948394775391 33.83490753173828 41.50690460205078 37.67090606689453 37.67090606689453 C 41.50690460205078 33.83490753173828 43.61948394775391 28.73467636108398 43.61948394775391 23.30974578857422 C 43.61948394775391 17.88481521606445 41.50690460205078 12.78458404541016 37.67090606689453 8.948585510253906 C 33.83489608764648 5.112575531005859 28.73467636108398 2.999996185302734 23.30974578857422 2.999996185302734 M 23.30974578857422 -3.814697265625e-06 C 36.18336486816406 -3.814697265625e-06 46.61948394775391 10.43612670898438 46.61948394775391 23.30974578857422 C 46.61948394775391 36.18336486816406 36.18336486816406 46.61948394775391 23.30974578857422 46.61948394775391 C 10.43612670898438 46.61948394775391 -3.814697265625e-06 36.18336486816406 -3.814697265625e-06 23.30974578857422 C -3.814697265625e-06 10.43612670898438 10.43612670898438 -3.814697265625e-06 23.30974578857422 -3.814697265625e-06 Z" stroke="none" fill="#f60042"/>
    </g>
    <path id="Path_82" data-name="Path 82" d="M0,0H54.02" transform="translate(842.31 883.189) rotate(90)" fill="none" stroke="#2fdec6" stroke-linecap="round" stroke-width="3"/>
    <path id="Path_83" data-name="Path 83" d="M0,0,5.776,5.776,0,11.552" transform="translate(848.197 931.913) rotate(90)" fill="none" stroke="#2fdec6" stroke-linecap="round" stroke-linejoin="round" stroke-width="3"/>
  </g>
</svg>
