<svg id="Camada_1" data-name="Camada 1" xmlns="http://www.w3.org/2000/svg" viewBox="0 0 1641.94 444.01"><defs><style>.cls-1{fill:#2fdec6;}.cls-2{fill:#d30c41;}</style></defs><path class="cls-1" d="M4.83,5.46h97V275.37h-97Z"/><path class="cls-1" d="M448.81,144C448.81,56.87,508.9,0,603.05,0c94.47,0,154.56,56.87,154.56,144s-60.09,144-154.56,144C508.9,287.91,448.81,231,448.81,144Zm212.08,0c0-39.2-26.67-60.09-57.84-60.09-30.85,0-57.84,20.89-57.84,60.09S572.2,204,603.05,204C634.22,204,660.89,183.15,660.89,144Z"/><path class="cls-1" d="M738.34,9H838.59l60.09,178.65H909L969.05,9h100.57L971.94,278.91H835.7Z"/><path class="cls-1" d="M1227.41,246.45h-109.9l-10.28,32.46H1007L1104.34,9h136.24l97.68,269.91H1237.69Zm-22.82-71.65-23.77-74.55h-16.71l-23.78,74.55Z"/><path class="cls-1" d="M1541.67,278.91l-34.06-66.19h-61v66.19h-97V9h158.74c75.83,0,118.89,31.49,118.89,105.39,0,35.35-15.43,61.05-37,77.12l46.92,87.4Zm-95.11-138.49h54.63c19.28,0,28.59-9.64,28.59-25.39s-9.31-25.38-28.59-25.38h-54.63Z"/><polygon class="cls-1" points="421.7 139.45 421.7 139.87 312.78 275.38 232.43 141.4 128.99 141.4 240.16 5.46 317.93 139.45 421.7 139.45"/><rect class="cls-2" x="128.98" y="141.39" width="94.79" height="133.99"/><rect class="cls-2" x="326.92" y="5.46" width="94.79" height="133.99"/><polygon class="cls-2" points="240.16 5.46 128.99 141.4 128.99 5.46 240.16 5.46"/><polygon class="cls-2" points="421.7 139.87 421.7 275.38 312.78 275.38 421.7 139.87"/><path class="cls-1" d="M0,364.13H23.47l19.14,54.2H44l19.14-54.2H86.6v77.3H69V394.86H67.46l-17,46.57H36.17l-17-46.57H17.58v46.57H0Z"/><path class="cls-1" d="M153.58,428.46h-38.1l-4.79,13h-19l29.91-77.3h25.77l30,77.3h-19Zm-5.16-13.9-12.14-33h-3.5l-12.15,33Z"/><path class="cls-1" d="M238.41,441.43l-12.7-23H200.77v23H182.46v-77.3H223c20.71,0,31.66,9.66,31.66,27.7,0,10.77-5.25,18.59-13.16,22.91l15.09,26.69Zm-37.64-37.08H222c9.29,0,14.45-4.24,14.45-12.43S231.32,379.5,222,379.5H200.77Z"/><path class="cls-1" d="M320.94,441.43l-25.3-31.84h-1.29L281,423.39v18H262.78v-77.3H281v37.08h1.38l35.16-37.08h20.8l-32.21,34.33,34,43Z"/><path class="cls-1" d="M343.47,364.13h65.07v15H361.79v16.93h45.09v13.26H361.79v17h46.75v15.09H343.47Z"/><path class="cls-1" d="M492.27,379.5h-29v61.93H444.87V379.5H416V364.13h76.29Z"/><path class="cls-1" d="M499.62,364.13h18.31v77.3H499.62Z"/><path class="cls-1" d="M525.84,364.13H547.1l35.89,52h1.75v-52h17.94v77.3H581.79l-36.35-52h-1.66v52H525.84Z"/><path class="cls-1" d="M690.83,441.43H679.32l-.18-11.23C673.8,438.3,664.05,444,650.33,444c-23.37,0-41.23-16.93-41.23-41.23s17.31-41.23,42.71-41.23c16.75,0,33.68,7.82,37.82,27.24H671.32c-3-7-9.94-11.32-19.24-11.32-14.35,0-24.85,10.4-24.85,25.31s10.59,25.31,24.49,25.31c7.72,0,18.49-3.41,21.16-15.1H650.43V400.57h40.4Z"/><path class="cls-1" d="M722.37,364.13h65.07v15H740.68v16.93h45.1v13.26h-45.1v17h46.76v15.09H722.37Z"/><path class="cls-1" d="M817.23,402.78c0-24.3,17.3-41.23,42.34-41.23,16.93,0,34.32,7.55,38.1,30.28H880.09c-3.31-9.94-11-14.36-20.52-14.36-13.72,0-24.21,10.4-24.21,25.31s10.49,25.31,24.21,25.31c9.57,0,17.21-4.42,20.52-14.45h17.58c-3.78,22.82-21,30.37-38.1,30.37C834.53,444,817.23,427.08,817.23,402.78Z"/><path class="cls-1" d="M903.08,402.78c0-24.3,17.21-41.23,42.42-41.23S988,378.48,988,402.78,970.81,444,945.5,444,903.08,427.08,903.08,402.78Zm66.72,0c0-15.19-10.49-25.31-24.3-25.31s-24.29,10.12-24.29,25.31,10.58,25.31,24.29,25.31S969.8,418,969.8,402.78Z"/><path class="cls-1" d="M994.54,364.13h21.25l35.9,52h1.74v-52h18v77.3h-20.89l-36.35-52h-1.66v52H994.54Z"/><path class="cls-1" d="M1077.34,417.5h16.57c.64,7.27,6.62,11.88,19.32,12,12,0,18.5-4.05,18.5-10.13,0-5.33-4.32-8-13.53-9.56l-9.57-1.66c-14.63-2.58-29.17-6.45-29.17-23.29,0-14.63,12.33-23.28,34-23.28,20.15,0,34.14,7.09,34.33,26.23h-16.48c-1.19-7-6.62-11.69-18.22-11.69-10.49,0-16,3.59-16,9.57,0,4.7,3.77,7.64,11.68,9.11l8.38,1.48c14.72,2.67,32.85,5.15,32.85,23.65,0,15.37-12.6,24.11-36.72,24.11C1089.67,444,1077.25,435.63,1077.34,417.5Z"/><path class="cls-1" d="M1156.2,409.22V364.13h18.49v44.63c0,12.34,6.17,19.79,18.78,19.79s18.86-7.45,18.86-19.79V364.13h18.41v45.09c0,23.56-13.44,34.79-37.27,34.79S1156.2,432.78,1156.2,409.22Z"/><path class="cls-1" d="M1238.55,364.13h18.31v61.93h44.54v15.37h-62.85Z"/><path class="cls-1" d="M1360.93,379.5h-29v61.93h-18.4V379.5h-28.9V364.13h76.29Z"/><path class="cls-1" d="M1361,402.78c0-24.3,17.21-41.23,42.43-41.23S1446,378.48,1446,402.78,1428.75,444,1403.44,444,1361,427.08,1361,402.78Zm66.72,0c0-15.19-10.49-25.31-24.29-25.31s-24.3,10.12-24.3,25.31,10.59,25.31,24.3,25.31S1427.73,418,1427.73,402.78Z"/><path class="cls-1" d="M1508.42,441.43l-12.7-23h-24.94v23h-18.31v-77.3h40.58c20.71,0,31.66,9.66,31.66,27.7,0,10.77-5.24,18.59-13.16,22.91l15.1,26.69Zm-37.64-37.08H1492c9.3,0,14.45-4.24,14.45-12.43s-5.15-12.42-14.45-12.42h-21.26Z"/><path class="cls-1" d="M1532.79,364.13h18.32v77.3h-18.32Z"/><path class="cls-1" d="M1618.1,428.46H1580l-4.79,13h-19l29.91-77.3h25.76l30,77.3h-19Zm-5.15-13.9-12.15-33h-3.5l-12.15,33Z"/></svg>