<svg xmlns="http://www.w3.org/2000/svg" width="214.462" height="30.722" viewBox="0 0 214.462 30.722">
  <g id="logo_" data-name="logo " transform="translate(-191 -42)">
    <rect id="Rectangle_3" data-name="Rectangle 3" width="10.787" height="15.248" transform="translate(191 57.473)" fill="#fff"/>
    <rect id="Rectangle_4" data-name="Rectangle 4" width="10.787" height="15.248" transform="translate(213.527 42)" fill="#fff"/>
    <path id="Path_90" data-name="Path 90" d="M58.353,1.93,45.7,17.4V1.93Z" transform="translate(145.3 40.07)" fill="#fff"/>
    <path id="Path_91" data-name="Path 91" d="M123.219,49.56V64.982h-12.4Z" transform="translate(101.098 7.74)" fill="#fff"/>
    <g id="Group_2" data-name="Group 2" transform="translate(232.579 42.225)">
      <path id="Path_92" data-name="Path 92" d="M1.71,1.93H11.987V30.517H1.71Z" transform="translate(-1.71 -1.353)" fill="#fff"/>
      <path id="Path_93" data-name="Path 93" d="M159.02,15.248C159.02,6.026,165.384,0,175.357,0s16.369,6.023,16.369,15.248S185.362,30.5,175.357,30.5,159.02,24.473,159.02,15.248Zm22.462,0c0-4.152-2.825-6.364-6.125-6.364s-6.125,2.212-6.125,6.364a6.13,6.13,0,1,0,12.25,0Z" transform="translate(-111.995 0)" fill="#fff"/>
      <path id="Path_94" data-name="Path 94" d="M261.61,3.19h10.618l6.364,18.922h1.088L286.045,3.19H296.7L286.349,31.777H271.92Z" transform="translate(-183.918 -2.236)" fill="#fff"/>
      <path id="Path_95" data-name="Path 95" d="M380.136,28.339H368.5l-1.088,3.438H356.79L367.1,3.19h14.429l10.346,28.587H381.227l-1.088-3.438Zm-2.415-7.59L375.2,12.854h-1.77l-2.517,7.895h6.807Z" transform="translate(-250.646 -2.236)" fill="#fff"/>
      <path id="Path_96" data-name="Path 96" d="M498.511,31.777l-3.608-7.01h-6.466v7.01H478.16V3.19h16.812c8.032,0,12.591,3.336,12.591,11.162a9.81,9.81,0,0,1-3.913,8.167l4.968,9.258ZM488.437,17.108h5.784c2.042,0,3.028-1.022,3.028-2.687s-.986-2.687-3.028-2.687h-5.784v5.378Z" transform="translate(-335.735 -2.236)" fill="#fff"/>
      <path id="Union_1" data-name="Union 1" d="M19.466,28.59,31,14.238V28.59ZM10.959,14.4h-.921V28.59H0V0H11.775l8.238,14.193H31v.045L19.466,28.59Zm10.005-.209V0H31V14.19Z" transform="translate(13.15 0.577)" fill="#fff"/>
    </g>
  </g>
</svg>
